# xmcd
# Copyright (C) 1995-1998 Ti Kan
#
# Track frame offsets:
#       150
#       23100
#       42615
#       59752
#       75500
#       89010
#       108062
#       126350
#       143965
#       167500
#       190292
#       211232
#       226495
#       242225
#       258897
#       286820
#       306325
#
# Disc length: 4261 seconds
#
# Revision: 0
# Processed by: cddbd v1.5.2PL0 Copyright (c) Steve Scherf et al.
# Submitted via: CD-Import v1.0
#
DISCID=f410a311
DTITLE=Divine Comedy - A Secret History
DYEAR=99
DGENRE=
TTITLE0=National Express
TTITLE1=Something For The Weekend
TTITLE2=Everybody Knows (Except You)
TTITLE3=Generation Sex
TTITLE4=Becoming More Like Alfie
TTITLE5=The Summerhouse
TTITLE6=Your Daddy's Car
TTITLE7=The Pop Singer's Fear Of The Pollen Count
TTITLE8=The Frog Princess
TTITLE9=Gin Soaked Boy
TTITLE10=Lucy
TTITLE11=Songs Of Love
TTITLE12=In Pursuit Of Happiness
TTITLE13=I've Been To A Marvellous Party
TTITLE14=The Certainty Of Chance
TTITLE15=Too Young To Die
TTITLE16=Tonight We Fly
EXTD=
EXTT0=
EXTT1=
EXTT2=
EXTT3=
EXTT4=
EXTT5=
EXTT6=
EXTT7=
EXTT8=
EXTT9=
EXTT10=
EXTT11=
EXTT12=
EXTT13=
EXTT14=
EXTT15=
EXTT16=
PLAYORDER=
